<?xml version="1.0" encoding="UTF-8"?>
<svg width="16px" height="16px" viewBox="0 0 16 16" version="1.1" xmlns="http://www.w3.org/2000/svg" xmlns:xlink="http://www.w3.org/1999/xlink">
    <!-- Generator: Sketch 52.3 (67297) - http://www.bohemiancoding.com/sketch -->
    <title>paint-bucket-40</title>
    <desc>Created with Sketch.</desc>
    <g id="Page-1" stroke="none" stroke-width="1" fill="none" fill-rule="evenodd">
        <g id="Desktop-HD" transform="translate(-800.000000, -329.000000)" fill="#111111">
            <g id="Group-3" transform="translate(768.000000, 297.000000)">
                <g id="paint-bucket-40" transform="translate(32.000000, 32.000000)">
                    <path d="M15.6,7.3 C15.6,7.3 10.7,0.6 10.7,0.6 C10.3,0.2 9.4,-0.3 7.7,0.4 C6.7,0.8 5.6,1.6 4.6,2.6 C2.7,4.5 1.2,7.3 2.6,8.7 C2.6,8.7 9.3,13.6 9.3,13.6 C9.6,13.9 10,14 10.4,14 C11.5,14 12.9,13.1 14,12 C14.7,11.3 15.3,10.5 15.7,9.7 C16.3,8.4 15.9,7.6 15.6,7.3 Z M6,4 C7.5,2.5 8.8,2 9.2,2 C9.2,2 9.2,2 9.2,2 C9.2,2.4 8.7,3.7 7.2,5.2 C5.7,6.7 4.4,7.2 4,7.2 C4,7.2 4,7.2 4,7.2 C4.1,6.7 4.5,5.4 6,4 Z" id="Shape" fill-rule="nonzero"></path>
                    <path d="M0,14 C0,12.9 2,10 2,10 C2,10 4,12.9 4,14 C4,15.1 3.1,16 2,16 C0.9,16 0,15.1 0,14 Z" id="Path"></path>
                </g>
            </g>
        </g>
    </g>
</svg>