<?xml version="1.0" encoding="UTF-8"?>
<svg width="75px" height="14px" viewBox="0 0 75 14" version="1.1" xmlns="http://www.w3.org/2000/svg" xmlns:xlink="http://www.w3.org/1999/xlink">
    <!-- Generator: Sketch 52.3 (67297) - http://www.bohemiancoding.com/sketch -->
    <title>Sans-Serif</title>
    <desc>Created with Sketch.</desc>
    <g id="Page-1" stroke="none" stroke-width="1" fill="none" fill-rule="evenodd">
        <g id="Desktop-HD" transform="translate(-720.000000, -1313.000000)" fill="#141414">
            <g id="Group-10" transform="translate(696.000000, 1260.000000)">
                <path d="M31.4960938,62.9609375 C31.4960938,63.9661509 31.1315141,64.7499972 30.4023438,65.3125 C29.6731734,65.8750028 28.6836,66.15625 27.4335938,66.15625 C26.0794203,66.15625 25.0377641,65.9817726 24.3085938,65.6328125 L24.3085938,64.3515625 C24.7773461,64.5494802 25.2877577,64.7057286 25.8398438,64.8203125 C26.3919298,64.9348964 26.9387994,64.9921875 27.4804688,64.9921875 C28.3658898,64.9921875 29.0325498,64.8242204 29.4804688,64.4882812 C29.9283877,64.1523421 30.1523438,63.6848988 30.1523438,63.0859375 C30.1523438,62.6901022 30.0729175,62.3658867 29.9140625,62.1132812 C29.7552075,61.8606758 29.4895852,61.6276052 29.1171875,61.4140625 C28.7447898,61.2005198 28.1783892,60.9583347 27.4179688,60.6875 C26.3554634,60.3072898 25.5963564,59.8567734 25.140625,59.3359375 C24.6848936,58.8151016 24.4570312,58.1354209 24.4570312,57.296875 C24.4570312,56.4166623 24.7877571,55.7161484 25.4492188,55.1953125 C26.1106804,54.6744766 26.9856716,54.4140625 28.0742188,54.4140625 C29.2096411,54.4140625 30.2539015,54.6223938 31.2070312,55.0390625 L30.7929688,56.1953125 C29.8502557,55.7994772 28.9335982,55.6015625 28.0429688,55.6015625 C27.3398402,55.6015625 26.7903666,55.7526027 26.3945312,56.0546875 C25.9986959,56.3567723 25.8007812,56.776039 25.8007812,57.3125 C25.8007812,57.7083353 25.8736972,58.0325508 26.0195312,58.2851562 C26.1653653,58.5377617 26.4114566,58.7695302 26.7578125,58.9804688 C27.1041684,59.1914073 27.634111,59.4244779 28.3476562,59.6796875 C29.5455789,60.106773 30.3697894,60.5651017 30.8203125,61.0546875 C31.2708356,61.5442733 31.4960938,62.1796836 31.4960938,62.9609375 Z M38.9023438,66 L38.6445312,64.78125 L38.5820312,64.78125 C38.1549458,65.317711 37.7291688,65.6809886 37.3046875,65.8710938 C36.8802062,66.0611989 36.3502636,66.15625 35.7148438,66.15625 C34.8658812,66.15625 34.2005232,65.9375022 33.71875,65.5 C33.2369768,65.0624978 32.9960938,64.4401082 32.9960938,63.6328125 C32.9960938,61.9036372 34.3788924,60.9973963 37.1445312,60.9140625 L38.5976562,60.8671875 L38.5976562,60.3359375 C38.5976562,59.6640591 38.4531264,59.1679704 38.1640625,58.8476562 C37.8749986,58.5273421 37.4127636,58.3671875 36.7773438,58.3671875 C36.0637985,58.3671875 35.2565149,58.5859353 34.3554688,59.0234375 L33.9570312,58.03125 C34.3789084,57.8020822 34.8411433,57.6223965 35.34375,57.4921875 C35.8463567,57.3619785 36.3502579,57.296875 36.8554688,57.296875 C37.8763072,57.296875 38.63281,57.5234352 39.125,57.9765625 C39.61719,58.4296898 39.8632812,59.156245 39.8632812,60.15625 L39.8632812,66 L38.9023438,66 Z M35.9726562,65.0859375 C36.779952,65.0859375 37.4140602,64.8645855 37.875,64.421875 C38.3359398,63.9791645 38.5664062,63.359379 38.5664062,62.5625 L38.5664062,61.7890625 L37.2695312,61.84375 C36.2382761,61.8802085 35.4947939,62.0403632 35.0390625,62.3242188 C34.5833311,62.6080743 34.3554688,63.0494762 34.3554688,63.6484375 C34.3554688,64.1171898 34.4973944,64.4739571 34.78125,64.71875 C35.0651056,64.9635429 35.462237,65.0859375 35.9726562,65.0859375 Z M48.3945312,66 L48.3945312,60.4609375 C48.3945312,59.7630173 48.2356787,59.2421892 47.9179688,58.8984375 C47.6002588,58.5546858 47.102868,58.3828125 46.4257812,58.3828125 C45.5299434,58.3828125 44.8737,58.6249976 44.4570312,59.109375 C44.0403625,59.5937524 43.8320312,60.3932236 43.8320312,61.5078125 L43.8320312,66 L42.5351562,66 L42.5351562,57.4375 L43.5898438,57.4375 L43.8007812,58.609375 L43.8632812,58.609375 C44.1289076,58.1874979 44.5012997,57.8606782 44.9804688,57.6289062 C45.4596378,57.3971343 45.9934866,57.28125 46.5820312,57.28125 C47.6132864,57.28125 48.3893203,57.5299454 48.9101562,58.0273438 C49.4309922,58.5247421 49.6914062,59.320307 49.6914062,60.4140625 L49.6914062,66 L48.3945312,66 Z M57.8789062,63.6640625 C57.8789062,64.4609415 57.5820342,65.0755187 56.9882812,65.5078125 C56.3945283,65.9401063 55.5612033,66.15625 54.4882812,66.15625 C53.3528589,66.15625 52.4674511,65.9765643 51.8320312,65.6171875 L51.8320312,64.4140625 C52.2434916,64.6223969 52.6848935,64.7864577 53.15625,64.90625 C53.6276065,65.0260423 54.0820291,65.0859375 54.5195312,65.0859375 C55.196618,65.0859375 55.7174461,64.9778657 56.0820312,64.7617188 C56.4466164,64.5455718 56.6289062,64.216148 56.6289062,63.7734375 C56.6289062,63.4401025 56.4843764,63.1549491 56.1953125,62.9179688 C55.9062486,62.6809884 55.3424521,62.4010433 54.5039062,62.078125 C53.7070273,61.7812485 53.1406267,61.5221365 52.8046875,61.3007812 C52.4687483,61.079426 52.2187508,60.8281264 52.0546875,60.546875 C51.8906242,60.2656236 51.8085938,59.9296895 51.8085938,59.5390625 C51.8085938,58.8411423 52.0924451,58.2903666 52.6601562,57.8867188 C53.2278674,57.4830709 54.0065055,57.28125 54.9960938,57.28125 C55.9179734,57.28125 56.819006,57.4687481 57.6992188,57.84375 L57.2382812,58.8984375 C56.378902,58.5442691 55.6002639,58.3671875 54.9023438,58.3671875 C54.2877573,58.3671875 53.8242203,58.4635407 53.5117188,58.65625 C53.1992172,58.8489593 53.0429688,59.1145816 53.0429688,59.453125 C53.0429688,59.6822928 53.1015619,59.8776034 53.21875,60.0390625 C53.3359381,60.2005216 53.5247383,60.3541659 53.7851562,60.5 C54.0455742,60.6458341 54.5455692,60.8567695 55.2851562,61.1328125 C56.3007863,61.502606 56.9869774,61.8749981 57.34375,62.25 C57.7005226,62.6250019 57.8789062,63.0963513 57.8789062,63.6640625 Z M59.2695312,62.3046875 L59.2695312,61.1171875 L63.1054688,61.1171875 L63.1054688,62.3046875 L59.2695312,62.3046875 Z M71.7773438,62.9609375 C71.7773438,63.9661509 71.4127641,64.7499972 70.6835938,65.3125 C69.9544234,65.8750028 68.96485,66.15625 67.7148438,66.15625 C66.3606703,66.15625 65.3190141,65.9817726 64.5898438,65.6328125 L64.5898438,64.3515625 C65.0585961,64.5494802 65.5690077,64.7057286 66.1210938,64.8203125 C66.6731798,64.9348964 67.2200494,64.9921875 67.7617188,64.9921875 C68.6471398,64.9921875 69.3137998,64.8242204 69.7617188,64.4882812 C70.2096377,64.1523421 70.4335938,63.6848988 70.4335938,63.0859375 C70.4335938,62.6901022 70.3541675,62.3658867 70.1953125,62.1132812 C70.0364575,61.8606758 69.7708352,61.6276052 69.3984375,61.4140625 C69.0260398,61.2005198 68.4596392,60.9583347 67.6992188,60.6875 C66.6367134,60.3072898 65.8776064,59.8567734 65.421875,59.3359375 C64.9661436,58.8151016 64.7382812,58.1354209 64.7382812,57.296875 C64.7382812,56.4166623 65.0690071,55.7161484 65.7304688,55.1953125 C66.3919304,54.6744766 67.2669216,54.4140625 68.3554688,54.4140625 C69.4908911,54.4140625 70.5351515,54.6223938 71.4882812,55.0390625 L71.0742188,56.1953125 C70.1315057,55.7994772 69.2148482,55.6015625 68.3242188,55.6015625 C67.6210902,55.6015625 67.0716166,55.7526027 66.6757812,56.0546875 C66.2799459,56.3567723 66.0820312,56.776039 66.0820312,57.3125 C66.0820312,57.7083353 66.1549472,58.0325508 66.3007812,58.2851562 C66.4466153,58.5377617 66.6927066,58.7695302 67.0390625,58.9804688 C67.3854184,59.1914073 67.915361,59.4244779 68.6289062,59.6796875 C69.8268289,60.106773 70.6510394,60.5651017 71.1015625,61.0546875 C71.5520856,61.5442733 71.7773438,62.1796836 71.7773438,62.9609375 Z M77.5351562,66.15625 C76.2695249,66.15625 75.270837,65.7708372 74.5390625,65 C73.807288,64.2291628 73.4414062,63.158861 73.4414062,61.7890625 C73.4414062,60.4088473 73.7812466,59.3125041 74.4609375,58.5 C75.1406284,57.6874959 76.0533797,57.28125 77.1992188,57.28125 C78.2721408,57.28125 79.1210906,57.6341111 79.7460938,58.3398438 C80.3710969,59.0455764 80.6835938,59.9765567 80.6835938,61.1328125 L80.6835938,61.953125 L74.7851562,61.953125 C74.811198,62.9583384 75.0651018,63.7213516 75.546875,64.2421875 C76.0286482,64.7630234 76.7070269,65.0234375 77.5820312,65.0234375 C78.5039109,65.0234375 79.4153601,64.8307311 80.3164062,64.4453125 L80.3164062,65.6015625 C79.8580706,65.7994802 79.4244812,65.9414058 79.015625,66.0273438 C78.6067688,66.1132817 78.1132841,66.15625 77.5351562,66.15625 Z M77.1835938,58.3671875 C76.4960903,58.3671875 75.9479187,58.5911436 75.5390625,59.0390625 C75.1302063,59.4869814 74.8893233,60.1067669 74.8164062,60.8984375 L79.2929688,60.8984375 C79.2929688,60.0807251 79.1106789,59.4544293 78.7460938,59.0195312 C78.3815086,58.5846332 77.8606805,58.3671875 77.1835938,58.3671875 Z M86.8007812,57.28125 C87.1809915,57.28125 87.5221339,57.3124997 87.8242188,57.375 L87.6445312,58.578125 C87.2903628,58.4999996 86.9778659,58.4609375 86.7070312,58.4609375 C86.0143195,58.4609375 85.4218775,58.7421847 84.9296875,59.3046875 C84.4374975,59.8671903 84.1914062,60.5677041 84.1914062,61.40625 L84.1914062,66 L82.8945312,66 L82.8945312,57.4375 L83.9648438,57.4375 L84.1132812,59.0234375 L84.1757812,59.0234375 C84.4934912,58.466143 84.8762998,58.0364598 85.3242188,57.734375 C85.7721377,57.4322902 86.2643202,57.28125 86.8007812,57.28125 Z M90.7226562,66 L89.4257812,66 L89.4257812,57.4375 L90.7226562,57.4375 L90.7226562,66 Z M89.3164062,55.1171875 C89.3164062,54.820311 89.3893222,54.6028653 89.5351562,54.4648438 C89.6809903,54.3268222 89.8632802,54.2578125 90.0820312,54.2578125 C90.2903656,54.2578125 90.4700513,54.3281243 90.6210938,54.46875 C90.7721362,54.6093757 90.8476562,54.8255194 90.8476562,55.1171875 C90.8476562,55.4088556 90.7721362,55.6263014 90.6210938,55.7695312 C90.4700513,55.9127611 90.2903656,55.984375 90.0820312,55.984375 C89.8632802,55.984375 89.6809903,55.9127611 89.5351562,55.7695312 C89.3893222,55.6263014 89.3164062,55.4088556 89.3164062,55.1171875 Z M97.3320312,58.4453125 L95.1523438,58.4453125 L95.1523438,66 L93.8554688,66 L93.8554688,58.4453125 L92.3242188,58.4453125 L92.3242188,57.859375 L93.8554688,57.390625 L93.8554688,56.9140625 C93.8554688,54.8098853 94.7747304,53.7578125 96.6132812,53.7578125 C97.0664085,53.7578125 97.5976532,53.8489574 98.2070312,54.03125 L97.8710938,55.0703125 C97.3710913,54.9088534 96.9440122,54.828125 96.5898438,54.828125 C96.100258,54.828125 95.7382824,54.9908838 95.5039062,55.3164062 C95.2695301,55.6419287 95.1523438,56.1640589 95.1523438,56.8828125 L95.1523438,57.4375 L97.3320312,57.4375 L97.3320312,58.4453125 Z" id="Sans-Serif"></path>
            </g>
        </g>
    </g>
</svg>