<?xml version="1.0" encoding="UTF-8"?>
<svg width="46px" height="17px" viewBox="0 0 46 17" version="1.1" xmlns="http://www.w3.org/2000/svg" xmlns:xlink="http://www.w3.org/1999/xlink">
    <!-- Generator: Sketch 52.3 (67297) - http://www.bohemiancoding.com/sketch -->
    <title>Serif</title>
    <desc>Created with Sketch.</desc>
    <g id="Page-1" stroke="none" stroke-width="1" fill="none" fill-rule="evenodd">
        <g id="Desktop-HD" transform="translate(-599.000000, -1056.000000)" fill="#141414">
            <g id="Group-9" transform="translate(560.000000, 1004.000000)">
                <path d="M44.02,53.58 C44.7133368,53.58 45.2666646,53.646666 45.68,53.78 C46.0933354,53.913334 46.5133312,54.1066654 46.94,54.36 C47.0866674,54.4400004 47.2166661,54.5066664 47.33,54.56 C47.4433339,54.6133336 47.5399996,54.64 47.62,54.64 C47.7400006,54.64 47.833333,54.5700007 47.9,54.43 C47.966667,54.2899993 48.0199998,54.0666682 48.06,53.76 L48.52,53.76 C48.453333,54.6533378 48.42,56.1733226 48.42,58.32 L47.96,58.32 C47.9066664,57.5999964 47.7433347,56.9133366 47.47,56.26 C47.1966653,55.6066634 46.8100025,55.0766687 46.31,54.67 C45.8099975,54.2633313 45.22667,54.06 44.56,54.06 C43.9066634,54.06 43.3766687,54.2433315 42.97,54.61 C42.5633313,54.9766685 42.36,55.4733302 42.36,56.1 C42.36,56.566669 42.459999,56.9733316 42.66,57.32 C42.860001,57.6666684 43.1399982,57.9833319 43.5,58.27 C43.8600018,58.5566681 44.4133296,58.9466642 45.16,59.44 L45.8,59.88 C46.5866706,60.4000026 47.2066644,60.8533314 47.66,61.24 C48.1133356,61.6266686 48.4833319,62.0766641 48.77,62.59 C49.0566681,63.1033359 49.2,63.6999966 49.2,64.38 C49.2,65.2333376 48.9800022,65.9499971 48.54,66.53 C48.0999978,67.1100029 47.5033371,67.5466652 46.75,67.84 C45.9966629,68.1333348 45.1600046,68.28 44.24,68.28 C43.4933296,68.28 42.8733358,68.213334 42.38,68.08 C41.8866642,67.946666 41.4333354,67.7666678 41.02,67.54 C40.7266652,67.3533324 40.5000008,67.26 40.34,67.26 C40.2199994,67.26 40.126667,67.3299993 40.06,67.47 C39.993333,67.6100007 39.9400002,67.8333318 39.9,68.14 L39.44,68.14 C39.4933336,67.2999958 39.52,65.5000138 39.52,62.74 L39.98,62.74 C40.0733338,64.2333408 40.4066638,65.4433287 40.98,66.37 C41.5533362,67.2966713 42.4333274,67.76 43.62,67.76 C44.3400036,67.76 44.933331,67.5666686 45.4,67.18 C45.866669,66.7933314 46.1,66.2400036 46.1,65.52 C46.1,64.7733296 45.8600024,64.133336 45.38,63.6 C44.8999976,63.066664 44.1400052,62.46667 43.1,61.8 C42.299996,61.2799974 41.6600024,60.8266686 41.18,60.44 C40.6999976,60.0533314 40.3066682,59.5966693 40,59.07 C39.6933318,58.5433307 39.54,57.9333368 39.54,57.24 C39.54,56.439996 39.7433313,55.7633361 40.15,55.21 C40.5566687,54.6566639 41.0999966,54.246668 41.78,53.98 C42.4600034,53.713332 43.2066626,53.58 44.02,53.58 Z M56.38,66.64 C57.4733388,66.64 58.35333,66.106672 59.02,65.04 L59.38,65.16 C59.113332,66.026671 58.6366701,66.7633303 57.95,67.37 C57.2633299,67.9766697 56.4066718,68.28 55.38,68.28 C53.9666596,68.28 52.8433375,67.8300045 52.01,66.93 C51.1766625,66.0299955 50.76,64.7000088 50.76,62.94 C50.76,61.139991 51.2066622,59.7633381 52.1,58.81 C52.9933378,57.8566619 54.1799926,57.38 55.66,57.38 C58.1666792,57.38 59.42,58.8599852 59.42,61.82 L53.8,61.82 C53.7866666,62.020001 53.78,62.3333312 53.78,62.76 C53.78,63.6400044 53.9033321,64.3733304 54.15,64.96 C54.3966679,65.5466696 54.7166647,65.973332 55.11,66.24 C55.5033353,66.506668 55.9266644,66.64 56.38,66.64 Z M55.54,57.8 C55.0599976,57.8 54.6633349,58.0966637 54.35,58.69 C54.0366651,59.2833363 53.8400004,60.1999938 53.76,61.44 L56.9,61.44 C56.9266668,60.3866614 56.8233345,59.5166701 56.59,58.83 C56.3566655,58.1433299 56.006669,57.8 55.54,57.8 Z M67.34,57.38 C67.940003,57.38 68.3933318,57.5599982 68.7,57.92 C69.0066682,58.2800018 69.16,58.7133308 69.16,59.22 C69.16,59.7133358 69.0166681,60.1166651 68.73,60.43 C68.4433319,60.7433349 68.066669,60.9 67.6,60.9 C67.1466644,60.9 66.786668,60.7833345 66.52,60.55 C66.253332,60.3166655 66.12,60.0066686 66.12,59.62 C66.12,58.9799968 66.4133304,58.460002 67,58.06 C66.9466664,58.0466666 66.8666672,58.04 66.76,58.04 C66.626666,58.04 66.5200004,58.0533332 66.44,58.08 C65.9333308,58.1600004 65.5033351,58.466664 65.15,59 C64.7966649,59.533336 64.62,60.0799972 64.62,60.64 L64.62,65.94 C64.62,66.5533364 64.7699985,66.9799988 65.07,67.22 C65.3700015,67.4600012 65.8466634,67.58 66.5,67.58 L66.5,68 C66.3133324,68 66.1600006,67.9933334 66.04,67.98 C64.6799932,67.9399998 63.7733356,67.92 63.32,67.92 C62.9599982,67.92 62.1400064,67.9399998 60.86,67.98 C60.7533328,67.9933334 60.6200008,68 60.46,68 L60.46,67.58 C60.9400024,67.58 61.2733324,67.4766677 61.46,67.27 C61.6466676,67.0633323 61.74,66.6866694 61.74,66.14 L61.74,59.84 C61.74,59.2266636 61.6466676,58.7800014 61.46,58.5 C61.2733324,58.2199986 60.9400024,58.08 60.46,58.08 L60.46,57.66 C60.8866688,57.7000002 61.299998,57.72 61.7,57.72 C62.8866726,57.72 63.8599962,57.6266676 64.62,57.44 L64.62,59.3 C64.8733346,58.7266638 65.2399976,58.2633351 65.72,57.91 C66.2000024,57.5566649 66.739997,57.38 67.34,57.38 Z M72.4,52.5 C72.9600028,52.5 73.4033317,52.6366653 73.73,52.91 C74.0566683,53.1833347 74.22,53.5599976 74.22,54.04 C74.22,54.5200024 74.0566683,54.8966653 73.73,55.17 C73.4033317,55.4433347 72.9600028,55.58 72.4,55.58 C71.8399972,55.58 71.3966683,55.4433347 71.07,55.17 C70.7433317,54.8966653 70.58,54.5200024 70.58,54.04 C70.58,53.5599976 70.7433317,53.1833347 71.07,52.91 C71.3966683,52.6366653 71.8399972,52.5 72.4,52.5 Z M73.96,66.14 C73.96,66.6866694 74.0566657,67.0633323 74.25,67.27 C74.4433343,67.4766677 74.773331,67.58 75.24,67.58 L75.24,68 C73.90666,67.9466664 73.0200022,67.92 72.58,67.92 C72.1666646,67.92 71.2400072,67.9466664 69.8,68 L69.8,67.58 C70.2800024,67.58 70.6133324,67.4766677 70.8,67.27 C70.9866676,67.0633323 71.08,66.6866694 71.08,66.14 L71.08,59.84 C71.08,59.2266636 70.9866676,58.7800014 70.8,58.5 C70.6133324,58.2199986 70.2800024,58.08 69.8,58.08 L69.8,57.66 C70.2266688,57.7000002 70.639998,57.72 71.04,57.72 C72.2266726,57.72 73.1999962,57.6266676 73.96,57.44 L73.96,66.14 Z M81.38,52.36 C82.2066708,52.36 82.919997,52.5799978 83.52,53.02 C83.720001,53.1800008 83.8833327,53.3899987 84.01,53.65 C84.1366673,53.9100013 84.2,54.1999984 84.2,54.52 C84.2,54.8933352 84.066668,55.2166653 83.8,55.49 C83.533332,55.7633347 83.1933354,55.9 82.78,55.9 C82.3266644,55.9 81.9600014,55.7733346 81.68,55.52 C81.3999986,55.2666654 81.26,54.9200022 81.26,54.48 C81.26,54.1333316 81.359999,53.826668 81.56,53.56 C81.760001,53.293332 82.0533314,53.1066672 82.44,53 C82.3999998,52.9199996 82.3166673,52.8533336 82.19,52.8 C82.0633327,52.7466664 81.9066676,52.72 81.72,52.72 C81.2133308,52.72 80.8533344,52.8933316 80.64,53.24 C80.4933326,53.440001 80.3933336,53.7333314 80.34,54.12 C80.2866664,54.5066686 80.26,55.0866628 80.26,55.86 L80.26,57.68 L82.4,57.68 L82.4,58.08 L80.26,58.08 L80.26,65.94 C80.26,66.5533364 80.4166651,66.9799988 80.73,67.22 C81.0433349,67.4600012 81.5133302,67.58 82.14,67.58 L82.14,68 L81.58,67.98 C80.0999926,67.9399998 79.1400022,67.92 78.7,67.92 C78.299998,67.92 77.43334,67.9466664 76.1,68 L76.1,67.58 C76.5800024,67.58 76.9133324,67.4766677 77.1,67.27 C77.2866676,67.0633323 77.38,66.6866694 77.38,66.14 L77.38,58.08 L76.02,58.08 L76.02,57.68 L77.38,57.68 C77.38,56.5199942 77.4733324,55.6233365 77.66,54.99 C77.8466676,54.3566635 78.173331,53.8133356 78.64,53.36 C78.9333348,53.0666652 79.3266642,52.8266676 79.82,52.64 C80.3133358,52.4533324 80.8333306,52.36 81.38,52.36 Z" id="Serif"></path>
            </g>
        </g>
    </g>
</svg>