<?xml version="1.0" encoding="UTF-8"?>
<svg width="40px" height="15px" viewBox="0 0 40 15" version="1.1" xmlns="http://www.w3.org/2000/svg" xmlns:xlink="http://www.w3.org/1999/xlink">
    <!-- Generator: Sketch 52.3 (67297) - http://www.bohemiancoding.com/sketch -->
    <title>Serif</title>
    <desc>Created with Sketch.</desc>
    <g id="Page-1" stroke="none" stroke-width="1" fill="none" fill-rule="evenodd">
        <g id="Desktop-HD" transform="translate(-601.000000, -1312.000000)" fill="#141414">
            <g id="Group-11" transform="translate(560.000000, 1260.000000)">
                <path d="M41.8505859,61.9765625 C42.1891293,62.8750045 42.5862607,63.5911432 43.0419922,64.125 C43.836267,65.0559942 44.8225853,65.5214844 46.0009766,65.5214844 C46.6390006,65.5214844 47.1907529,65.3196635 47.65625,64.9160156 C48.1217471,64.5123678 48.3544922,63.9492224 48.3544922,63.2265625 C48.3544922,62.5755176 48.1201195,62.009117 47.6513672,61.5273438 C47.3453761,61.2213526 46.7008513,60.7623729 45.7177734,60.1503906 L44.0087891,59.0859375 C43.4944636,58.760415 43.0843114,58.4316423 42.7783203,58.0996094 C42.2119112,57.4680958 41.9287109,56.7714882 41.9287109,56.0097656 C41.9287109,55.000646 42.263994,54.1608106 42.9345703,53.4902344 C43.6051466,52.8196581 44.4938096,52.484375 45.6005859,52.484375 C46.0563174,52.484375 46.6048145,52.5966786 47.2460938,52.8212891 C47.887373,53.0458996 48.2535803,53.1582031 48.3447266,53.1582031 C48.5921236,53.1582031 48.7630204,53.09961 48.8574219,52.9824219 C48.9518234,52.8652338 49.0250648,52.6992198 49.0771484,52.484375 L49.4873047,52.484375 L49.9267578,56.7421875 L49.4482422,56.7421875 C49.1227197,55.459629 48.600264,54.5644557 47.8808594,54.0566406 C47.1614547,53.5488256 46.4501988,53.2949219 45.7470703,53.2949219 C45.2001926,53.2949219 44.7233093,53.4560531 44.3164062,53.7783203 C43.9095032,54.1005875 43.7060547,54.5481742 43.7060547,55.1210938 C43.7060547,55.6354192 43.8623031,56.074868 44.1748047,56.4394531 C44.4873063,56.8105487 44.9723274,57.1979146 45.6298828,57.6015625 L47.3876953,58.6855469 C48.4879612,59.3626336 49.2626931,59.9843722 49.7119141,60.5507812 C50.1546246,61.1237008 50.3759766,61.8007773 50.3759766,62.5820312 C50.3759766,63.6302136 49.9804727,64.5058559 49.1894531,65.2089844 C48.3984335,65.9121129 47.3877015,66.2636719 46.1572266,66.2636719 C45.5387339,66.2636719 44.8925815,66.1464855 44.21875,65.9121094 C43.5449185,65.6777332 43.1591802,65.5605469 43.0615234,65.5605469 C42.8271473,65.5605469 42.6692712,65.6321607 42.5878906,65.7753906 C42.50651,65.9186205 42.4527996,66.0716138 42.4267578,66.234375 L41.9873047,66.234375 L41.3916016,61.9765625 L41.8505859,61.9765625 Z M56.2646484,56.8398438 C57.1826218,56.8398438 57.9866502,57.1572234 58.6767578,57.7919922 C59.3668654,58.426761 59.7119141,59.3268171 59.7119141,60.4921875 L53.5107422,60.4921875 C53.5758467,62.0026117 53.9176401,63.1028611 54.5361328,63.7929688 C55.1546255,64.4830764 55.88704,64.828125 56.7333984,64.828125 C57.4169956,64.828125 57.9931617,64.6490903 58.4619141,64.2910156 C58.9306664,63.9329409 59.3636048,63.4251335 59.7607422,62.7675781 L60.1025391,62.8847656 C59.8356106,63.7115927 59.3359412,64.476559 58.6035156,65.1796875 C57.8710901,65.882816 56.9742892,66.234375 55.9130859,66.234375 C54.6891215,66.234375 53.7434929,65.77214 53.0761719,64.8476562 C52.4088508,63.9231725 52.0751953,62.85873 52.0751953,61.6542969 C52.0751953,60.3456966 52.4625612,59.2161506 53.2373047,58.265625 C54.0120481,57.3150994 55.0211526,56.8398438 56.2646484,56.8398438 Z M55.6982422,57.5527344 C54.956051,57.5527344 54.3896504,57.8815071 53.9990234,58.5390625 C53.7906891,58.8906268 53.640951,59.3333307 53.5498047,59.8671875 L57.6708984,59.8671875 C57.5992835,59.2161426 57.4755868,58.7311214 57.2998047,58.4121094 C56.9807927,57.8391898 56.4469438,57.5527344 55.6982422,57.5527344 Z M60.6494141,65.6777344 C61.2483754,65.6256508 61.6455068,65.5198576 61.8408203,65.3603516 C62.0361338,65.2008456 62.1337891,64.8606797 62.1337891,64.3398438 L62.1337891,59.9355469 C62.1337891,59.2910124 62.0735683,58.830405 61.953125,58.5537109 C61.8326817,58.2770168 61.6129573,58.1386719 61.2939453,58.1386719 C61.2288408,58.1386719 61.1425787,58.1468098 61.0351562,58.1630859 C60.9277338,58.1793621 60.8154303,58.2005207 60.6982422,58.2265625 L60.6982422,57.9042969 C61.0693378,57.7740879 61.4501934,57.6406257 61.8408203,57.5039062 C62.2314473,57.3671868 62.5016269,57.2695315 62.6513672,57.2109375 C62.9768896,57.087239 63.3121728,56.9472664 63.6572266,56.7910156 C63.7027997,56.7910156 63.7304687,56.8072915 63.7402344,56.8398438 C63.75,56.872396 63.7548828,56.9407547 63.7548828,57.0449219 L63.7548828,58.6464844 C64.1715516,58.0670544 64.5735658,57.614585 64.9609375,57.2890625 C65.3483092,56.96354 65.7503234,56.8007812 66.1669922,56.8007812 C66.4990251,56.8007812 66.7692047,56.9000641 66.9775391,57.0986328 C67.1858734,57.2972015 67.2900391,57.5462225 67.2900391,57.8457031 C67.2900391,58.1126315 67.2102873,58.3372387 67.0507812,58.5195312 C66.8912752,58.7018238 66.6910819,58.7929688 66.4501953,58.7929688 C66.2027982,58.7929688 65.9537773,58.6790376 65.703125,58.4511719 C65.4524727,58.2233062 65.2555346,58.109375 65.1123047,58.109375 C64.884439,58.109375 64.6044938,58.2932924 64.2724609,58.6611328 C63.940428,59.0289732 63.7744141,59.4082012 63.7744141,59.7988281 L63.7744141,64.203125 C63.7744141,64.7630236 63.9046211,65.1520171 64.1650391,65.3701172 C64.425457,65.5882172 64.8583954,65.6907553 65.4638672,65.6777344 L65.4638672,66 L60.6494141,66 L60.6494141,65.6777344 Z M68.8623047,53.3925781 C68.8623047,53.1126288 68.95996,52.8717458 69.1552734,52.6699219 C69.3505869,52.4680979 69.5914699,52.3671875 69.8779297,52.3671875 C70.157879,52.3671875 70.3971344,52.4664704 70.5957031,52.6650391 C70.7942718,52.8636078 70.8935547,53.1061184 70.8935547,53.3925781 C70.8935547,53.6725274 70.7942718,53.9117829 70.5957031,54.1103516 C70.3971344,54.3089203 70.157879,54.4082031 69.8779297,54.4082031 C69.5914699,54.4082031 69.3505869,54.3089203 69.1552734,54.1103516 C68.95996,53.9117829 68.8623047,53.6725274 68.8623047,53.3925781 Z M67.6123047,65.7265625 C68.3089228,65.661458 68.7483715,65.5426441 68.9306641,65.3701172 C69.1129566,65.1975903 69.2041016,64.7304726 69.2041016,63.96875 L69.2041016,59.3105469 C69.2041016,58.8873677 69.174805,58.5944019 69.1162109,58.4316406 C69.0185542,58.1647122 68.8134781,58.03125 68.5009766,58.03125 C68.4293616,58.03125 68.3593753,58.0377604 68.2910156,58.0507812 C68.2226559,58.0638021 68.0257178,58.115885 67.7001953,58.2070312 L67.7001953,57.9042969 L68.1201172,57.7675781 C69.2594458,57.3964825 70.0537087,57.1165374 70.5029297,56.9277344 C70.6852223,56.849609 70.8024086,56.8105469 70.8544922,56.8105469 C70.8675131,56.85612 70.8740234,56.9049477 70.8740234,56.9570312 L70.8740234,63.96875 C70.8740234,64.7109412 70.9635408,65.1764313 71.1425781,65.3652344 C71.3216155,65.5540374 71.7268849,65.6744789 72.3583984,65.7265625 L72.3583984,66 L67.6123047,66 L67.6123047,65.7265625 Z M73.1689453,65.7265625 C73.8590529,65.6940103 74.31315,65.5654308 74.53125,65.3408203 C74.74935,65.1162098 74.8583984,64.6425817 74.8583984,63.9199219 L74.8583984,57.6503906 L73.1884766,57.6503906 L73.1884766,56.9960938 L74.8583984,56.9960938 C74.8583984,55.9674428 74.998371,55.0983108 75.2783203,54.3886719 C75.8121771,53.027988 76.7919851,52.3476562 78.2177734,52.3476562 C78.790693,52.3476562 79.3033832,52.4615874 79.7558594,52.6894531 C80.2083356,52.9173188 80.4345703,53.2233054 80.4345703,53.6074219 C80.4345703,53.8222667 80.3564461,54.0143221 80.2001953,54.1835938 C80.0439445,54.3528654 79.8551443,54.4375 79.6337891,54.4375 C79.444986,54.4375 79.2822272,54.3805344 79.1455078,54.2666016 C79.0087884,54.1526687 78.8460296,53.9524754 78.6572266,53.6660156 L78.4912109,53.4121094 C78.4000646,53.2753899 78.2926438,53.1598312 78.1689453,53.0654297 C78.0452468,52.9710282 77.8727225,52.9238281 77.6513672,52.9238281 C77.156573,52.9238281 76.8212899,53.1679663 76.6455078,53.65625 C76.5478511,53.916668 76.4990234,54.2584614 76.4990234,54.6816406 L76.4990234,56.9960938 L78.9501953,56.9960938 L78.9501953,57.6503906 L76.5185547,57.6503906 L76.5185547,63.9199219 C76.5185547,64.6556026 76.6178375,65.1259755 76.8164062,65.3310547 C77.014975,65.5361338 77.5341755,65.6679685 78.3740234,65.7265625 L78.3740234,66 L73.1689453,66 L73.1689453,65.7265625 Z" id="Serif"></path>
            </g>
        </g>
    </g>
</svg>