<?xml version="1.0" encoding="UTF-8"?>
<svg width="45px" height="37px" viewBox="0 0 45 37" version="1.1" xmlns="http://www.w3.org/2000/svg" xmlns:xlink="http://www.w3.org/1999/xlink">
    <!-- Generator: Sketch 52.3 (67297) - http://www.bohemiancoding.com/sketch -->
    <title>Slab Serif</title>
    <desc>Created with Sketch.</desc>
    <g id="Page-1" stroke="none" stroke-width="1" fill="none" fill-rule="evenodd">
        <g id="Desktop-HD" transform="translate(-1006.000000, -1043.000000)" fill="#141414">
            <g id="Group-4" transform="translate(968.000000, 1004.000000)">
                <path d="M50.9912109,45.3222656 L48.8525391,45.3222656 L48.4814453,43.3691406 C48.2340482,43.2128898 47.8727237,43.0761725 47.3974609,42.9589844 C46.9221981,42.8417963 46.4176459,42.7832031 45.8837891,42.7832031 C45.1025352,42.7832031 44.4987,42.9475895 44.0722656,43.2763672 C43.6458312,43.6051449 43.4326172,44.0299453 43.4326172,44.5507812 C43.4326172,45.0325545 43.6555967,45.4280583 44.1015625,45.7373047 C44.5475283,46.046551 45.3173773,46.3736962 46.4111328,46.71875 C47.9801511,47.1549501 49.1699178,47.7311162 49.9804688,48.4472656 C50.7910197,49.163415 51.1962891,50.1041608 51.1962891,51.2695312 C51.1962891,52.4869853 50.714523,53.4472621 49.7509766,54.1503906 C48.7874301,54.8535191 47.5179115,55.2050781 45.9423828,55.2050781 C44.8160751,55.2050781 43.7988327,55.0260435 42.890625,54.6679688 C41.9824173,54.309894 41.225589,53.8151073 40.6201172,53.1835938 L40.6201172,50.2148438 L42.8271484,50.2148438 L43.1298828,52.2363281 C43.4163426,52.4707043 43.8053361,52.6643873 44.296875,52.8173828 C44.7884139,52.9703784 45.336911,53.046875 45.9423828,53.046875 C46.7236367,53.046875 47.3177063,52.8873714 47.7246094,52.5683594 C48.1315125,52.2493474 48.3349609,51.8229193 48.3349609,51.2890625 C48.3349609,50.7421848 48.141278,50.302736 47.7539062,49.9707031 C47.3665345,49.6386702 46.6878304,49.3261733 45.7177734,49.0332031 C44.0315671,48.5449194 42.7555382,47.9654981 41.8896484,47.2949219 C41.0237587,46.6243456 40.5908203,45.706386 40.5908203,44.5410156 C40.5908203,43.3886661 41.0790967,42.4462927 42.0556641,41.7138672 C43.0322314,40.9814417 44.2594327,40.6054688 45.7373047,40.5859375 C46.8310602,40.5859375 47.8271439,40.7519515 48.7255859,41.0839844 C49.6240279,41.4160173 50.3792287,41.8587212 50.9912109,42.4121094 L50.9912109,45.3222656 Z M52.0849609,41.484375 L52.0849609,39.765625 L56.4599609,39.765625 L56.4599609,52.9980469 L57.8369141,53.2910156 L57.8369141,55 L52.2314453,55 L52.2314453,53.2910156 L53.6083984,52.9980469 L53.6083984,41.7773438 L52.0849609,41.484375 Z M65.4931641,55 C65.4150387,54.8242179 65.34668,54.6435556 65.2880859,54.4580078 C65.2294919,54.27246 65.1839194,54.0852874 65.1513672,53.8964844 C64.8128238,54.2871113 64.4010441,54.6028634 63.9160156,54.84375 C63.4309872,55.0846366 62.8759797,55.2050781 62.2509766,55.2050781 C61.2158151,55.2050781 60.3938833,54.9235054 59.7851562,54.3603516 C59.1764292,53.7971977 58.8720703,53.0306038 58.8720703,52.0605469 C58.8720703,51.0709586 59.2692018,50.3059923 60.0634766,49.765625 C60.8577514,49.2252577 62.0231043,48.9550781 63.5595703,48.9550781 L65.0146484,48.9550781 L65.0146484,47.9199219 C65.0146484,47.4121068 64.8681655,47.0182306 64.5751953,46.7382812 C64.2822251,46.4583319 63.8492867,46.3183594 63.2763672,46.3183594 C62.9508447,46.3183594 62.6611341,46.3557939 62.4072266,46.4306641 C62.153319,46.5055342 61.948243,46.5950516 61.7919922,46.6992188 L61.6064453,47.8320312 L59.4580078,47.8320312 L59.4677734,45.4882812 C59.9886094,45.136717 60.5859341,44.840496 61.2597656,44.5996094 C61.9335971,44.3587228 62.6676393,44.2382812 63.4619141,44.2382812 C64.7705144,44.2382812 65.8333292,44.5589161 66.6503906,45.2001953 C67.467452,45.8414746 67.8759766,46.7545514 67.8759766,47.9394531 L67.8759766,52.3046875 C67.8759766,52.4674487 67.8776042,52.620442 67.8808594,52.7636719 C67.8841146,52.9069018 67.8955077,53.0436191 67.9150391,53.1738281 L68.7841797,53.2910156 L68.7841797,55 L65.4931641,55 Z M63.0224609,53.0957031 C63.4521506,53.0957031 63.8427717,53.0029306 64.1943359,52.8173828 C64.5459002,52.631835 64.819335,52.3990899 65.0146484,52.1191406 L65.0146484,50.5078125 L63.5595703,50.5078125 C62.9540985,50.5078125 62.4951188,50.6494126 62.1826172,50.9326172 C61.8701156,51.2158217 61.7138672,51.5559876 61.7138672,51.953125 C61.7138672,52.3111997 61.8294259,52.5911448 62.0605469,52.7929688 C62.2916678,52.9947927 62.6123026,53.0957031 63.0224609,53.0957031 Z M79.6533203,50.0097656 C79.6533203,51.5852943 79.3017613,52.8450474 78.5986328,53.7890625 C77.8955043,54.7330776 76.8798895,55.2050781 75.5517578,55.2050781 C74.9332651,55.2050781 74.3961611,55.0764987 73.9404297,54.8193359 C73.4846982,54.5621732 73.1005875,54.1894556 72.7880859,53.7011719 L72.5830078,55 L70.1220703,55 L70.1220703,41.7773438 L68.6083984,41.484375 L68.6083984,39.765625 L72.9638672,39.765625 L72.9638672,45.5566406 C73.2698583,45.1334614 73.6360656,44.8079438 74.0625,44.5800781 C74.4889344,44.3522124 74.9788384,44.2382812 75.5322266,44.2382812 C76.8733791,44.2382812 77.8955043,44.7444611 78.5986328,45.7568359 C79.3017613,46.7692108 79.6533203,48.1184812 79.6533203,49.8046875 L79.6533203,50.0097656 Z M76.8115234,49.8046875 C76.8115234,48.7760365 76.6601578,47.960615 76.3574219,47.3583984 C76.054686,46.7561819 75.5387406,46.4550781 74.8095703,46.4550781 C74.3668598,46.4550781 73.9925146,46.5478506 73.6865234,46.7333984 C73.3805323,46.9189462 73.1396493,47.1842431 72.9638672,47.5292969 L72.9638672,51.9921875 C73.1396493,52.31771 73.3821599,52.5651033 73.6914062,52.734375 C74.0006526,52.9036467 74.3798806,52.9882812 74.8291016,52.9882812 C75.5647823,52.9882812 76.0791001,52.7294948 76.3720703,52.2119141 C76.6650405,51.6943333 76.8115234,50.9602912 76.8115234,50.0097656 L76.8115234,49.8046875 Z M48.8037109,65.3222656 L46.6650391,65.3222656 L46.2939453,63.3691406 C46.0465482,63.2128898 45.6852237,63.0761725 45.2099609,62.9589844 C44.7346981,62.8417963 44.2301459,62.7832031 43.6962891,62.7832031 C42.9150352,62.7832031 42.3112,62.9475895 41.8847656,63.2763672 C41.4583312,63.6051449 41.2451172,64.0299453 41.2451172,64.5507812 C41.2451172,65.0325545 41.4680967,65.4280583 41.9140625,65.7373047 C42.3600283,66.046551 43.1298773,66.3736962 44.2236328,66.71875 C45.7926511,67.1549501 46.9824178,67.7311162 47.7929688,68.4472656 C48.6035197,69.163415 49.0087891,70.1041608 49.0087891,71.2695312 C49.0087891,72.4869853 48.527023,73.4472621 47.5634766,74.1503906 C46.5999301,74.8535191 45.3304115,75.2050781 43.7548828,75.2050781 C42.6285751,75.2050781 41.6113327,75.0260435 40.703125,74.6679688 C39.7949173,74.309894 39.038089,73.8151073 38.4326172,73.1835938 L38.4326172,70.2148438 L40.6396484,70.2148438 L40.9423828,72.2363281 C41.2288426,72.4707043 41.6178361,72.6643873 42.109375,72.8173828 C42.6009139,72.9703784 43.149411,73.046875 43.7548828,73.046875 C44.5361367,73.046875 45.1302063,72.8873714 45.5371094,72.5683594 C45.9440125,72.2493474 46.1474609,71.8229193 46.1474609,71.2890625 C46.1474609,70.7421848 45.953778,70.302736 45.5664062,69.9707031 C45.1790345,69.6386702 44.5003304,69.3261733 43.5302734,69.0332031 C41.8440671,68.5449194 40.5680382,67.9654981 39.7021484,67.2949219 C38.8362587,66.6243456 38.4033203,65.706386 38.4033203,64.5410156 C38.4033203,63.3886661 38.8915967,62.4462927 39.8681641,61.7138672 C40.8447314,60.9814417 42.0719327,60.6054688 43.5498047,60.5859375 C44.6435602,60.5859375 45.6396439,60.7519515 46.5380859,61.0839844 C47.4365279,61.4160173 48.1917287,61.8587212 48.8037109,62.4121094 L48.8037109,65.3222656 Z M55.2587891,75.2050781 C53.7353439,75.2050781 52.5179082,74.7168018 51.6064453,73.7402344 C50.6949824,72.763667 50.2392578,71.523445 50.2392578,70.0195312 L50.2392578,69.6289062 C50.2392578,68.059888 50.6705686,66.7675832 51.5332031,65.7519531 C52.3958376,64.736323 53.5530526,64.2317708 55.0048828,64.2382812 C56.4306712,64.2382812 57.537431,64.6679645 58.3251953,65.5273438 C59.1129597,66.386723 59.5068359,67.5488208 59.5068359,69.0136719 L59.5068359,70.5664062 L53.1982422,70.5664062 L53.1787109,70.625 C53.2307945,71.3216181 53.4635396,71.894529 53.8769531,72.34375 C54.2903667,72.792971 54.8518845,73.0175781 55.5615234,73.0175781 C56.193037,73.0175781 56.7171203,72.9541022 57.1337891,72.8271484 C57.5504578,72.7001947 58.0061824,72.5000014 58.5009766,72.2265625 L59.2724609,73.984375 C58.8362608,74.3294288 58.2714878,74.6191395 57.578125,74.8535156 C56.8847622,75.0878918 56.1116579,75.2050781 55.2587891,75.2050781 Z M55.0048828,66.4355469 C54.4775364,66.4355469 54.0608739,66.6373678 53.7548828,67.0410156 C53.4488917,67.4446635 53.2600915,67.9752571 53.1884766,68.6328125 L53.2177734,68.6816406 L56.7138672,68.6816406 L56.7138672,68.4277344 C56.7138672,67.8222626 56.572267,67.338869 56.2890625,66.9775391 C56.005858,66.6162091 55.5778023,66.4355469 55.0048828,66.4355469 Z M61.0693359,73.2910156 L62.4365234,72.9980469 L62.4365234,66.4453125 L60.9228516,66.1523438 L60.9228516,64.4335938 L65.0927734,64.4335938 L65.2197266,65.9765625 C65.4671236,65.4296848 65.7861309,65.0032567 66.1767578,64.6972656 C66.5673848,64.3912745 67.0198542,64.2382812 67.5341797,64.2382812 C67.68392,64.2382812 67.841796,64.2496744 68.0078125,64.2724609 C68.173829,64.2952475 68.3121739,64.3229165 68.4228516,64.3554688 L68.1201172,66.953125 L66.9482422,66.9238281 C66.5315734,66.9238281 66.1865248,67.0052075 65.9130859,67.1679688 C65.6396471,67.33073 65.4313158,67.5618475 65.2880859,67.8613281 L65.2880859,72.9980469 L66.6552734,73.2910156 L66.6552734,75 L61.0693359,75 L61.0693359,73.2910156 Z M69.1845703,73.2910156 L70.5615234,72.9980469 L70.5615234,66.4453125 L69.0380859,66.1523438 L69.0380859,64.4335938 L73.4130859,64.4335938 L73.4130859,72.9980469 L74.7802734,73.2910156 L74.7802734,75 L69.1845703,75 L69.1845703,73.2910156 Z M73.4130859,61.9042969 L70.5615234,61.9042969 L70.5615234,59.765625 L73.4130859,59.765625 L73.4130859,61.9042969 Z M75.8740234,73.2910156 L77.2509766,72.9980469 L77.2509766,66.4355469 L75.6787109,66.4355469 L75.6787109,64.4335938 L77.2509766,64.4335938 L77.2509766,63.2617188 C77.2509766,62.076817 77.59277,61.1637402 78.2763672,60.5224609 C78.9599644,59.8811817 79.9202412,59.5605469 81.1572266,59.5605469 C81.3981132,59.5605469 81.643879,59.5784503 81.8945312,59.6142578 C82.1451835,59.6500653 82.4202459,59.7005205 82.7197266,59.765625 L82.4755859,61.8847656 C82.3193352,61.8587238 82.1679695,61.8359376 82.0214844,61.8164062 C81.8749993,61.7968749 81.7041025,61.7871094 81.5087891,61.7871094 C81.0465472,61.7871094 80.6966158,61.9140612 80.4589844,62.1679688 C80.221353,62.4218763 80.1025391,62.786456 80.1025391,63.2617188 L80.1025391,64.4335938 L82.2021484,64.4335938 L82.2021484,66.4355469 L80.1025391,66.4355469 L80.1025391,72.9980469 L81.4794922,73.2910156 L81.4794922,75 L75.8740234,75 L75.8740234,73.2910156 Z" id="Slab-Serif"></path>
            </g>
        </g>
    </g>
</svg>