<?xml version="1.0" encoding="UTF-8"?>
<svg width="24px" height="24px" viewBox="0 0 24 24" version="1.1" xmlns="http://www.w3.org/2000/svg" xmlns:xlink="http://www.w3.org/1999/xlink">
    <!-- Generator: Sketch 52.3 (67297) - http://www.bohemiancoding.com/sketch -->
    <title>Combined Shape</title>
    <desc>Created with Sketch.</desc>
    <g id="Page-1" stroke="none" stroke-width="1" fill="none" fill-rule="evenodd">
        <g id="Desktop-HD" transform="translate(-568.000000, -2888.000000)" fill="#FFFFFF" fill-rule="nonzero">
            <g id="Group-6" transform="translate(560.000000, 2451.000000)">
                <g id="Group-3" transform="translate(0.000000, 128.000000)">
                    <g id="Group-16" transform="translate(8.000000, 309.000000)">
                        <path d="M4,1 C2.34314575,1 1,2.34314575 1,4 L1,20 C1,21.6568542 2.34314575,23 4,23 L20,23 C21.6568542,23 23,21.6568542 23,20 L23,4 C23,2.34314575 21.6568542,1 20,1 L4,1 Z M4,0 L20,0 C22.209139,-4.05812251e-16 24,1.790861 24,4 L24,20 C24,22.209139 22.209139,24 20,24 L4,24 C1.790861,24 2.705415e-16,22.209139 0,20 L0,4 C-2.705415e-16,1.790861 1.790861,4.05812251e-16 4,0 Z M16,10.2727273 L11.0909091,15.1818182 L8,12.0909091 L9.27272727,10.8181818 L11.0909091,12.6363636 L14.7272727,9 L16,10.2727273 Z" id="Combined-Shape"></path>
                    </g>
                </g>
            </g>
        </g>
    </g>
</svg>