<?xml version="1.0" encoding="UTF-8"?>
<svg width="47px" height="40px" viewBox="0 0 47 40" version="1.1" xmlns="http://www.w3.org/2000/svg" xmlns:xlink="http://www.w3.org/1999/xlink">
    <!-- Generator: Sketch 52.3 (67297) - http://www.bohemiancoding.com/sketch -->
    <title>Sans Serif</title>
    <desc>Created with Sketch.</desc>
    <g id="Page-1" stroke="none" stroke-width="1" fill="none" fill-rule="evenodd">
        <g id="Desktop-HD" transform="translate(-733.000000, -1044.000000)" fill="#141414">
            <g id="Group-7" transform="translate(696.000000, 1004.000000)">
                <path d="M42.43,55.12 C41.3899948,55.12 40.3933381,54.953335 39.44,54.62 C38.4866619,54.286665 37.7500026,53.8466694 37.23,53.3 L37.81,52.16 C38.3166692,52.6666692 38.9899958,53.0766651 39.83,53.39 C40.6700042,53.7033349 41.5366622,53.86 42.43,53.86 C43.6833396,53.86 44.6233302,53.6300023 45.25,53.17 C45.8766698,52.7099977 46.19,52.113337 46.19,51.38 C46.19,50.8199972 46.0200017,50.373335 45.68,50.04 C45.3399983,49.706665 44.9233358,49.4500009 44.43,49.27 C43.9366642,49.0899991 43.2500044,48.8933344 42.37,48.68 C41.3166614,48.413332 40.4766698,48.1566679 39.85,47.91 C39.2233302,47.6633321 38.6866689,47.2866692 38.24,46.78 C37.7933311,46.2733308 37.57,45.586671 37.57,44.72 C37.57,44.0133298 37.7566648,43.3700029 38.13,42.79 C38.5033352,42.2099971 39.0766628,41.7466684 39.85,41.4 C40.6233372,41.0533316 41.5833276,40.88 42.73,40.88 C43.530004,40.88 44.3133295,40.9899989 45.08,41.21 C45.8466705,41.4300011 46.5099972,41.7333314 47.07,42.12 L46.57,43.3 C45.9833304,42.9133314 45.35667,42.6233343 44.69,42.43 C44.02333,42.2366657 43.3700032,42.14 42.73,42.14 C41.5033272,42.14 40.5800031,42.3766643 39.96,42.85 C39.3399969,43.3233357 39.03,43.9333296 39.03,44.68 C39.03,45.2400028 39.1999983,45.6899983 39.54,46.03 C39.8800017,46.3700017 40.3066641,46.6299991 40.82,46.81 C41.3333359,46.9900009 42.023329,47.1866656 42.89,47.4 C43.9166718,47.6533346 44.7466635,47.9033321 45.38,48.15 C46.0133365,48.3966679 46.5499978,48.7699975 46.99,49.27 C47.4300022,49.7700025 47.65,50.4466624 47.65,51.3 C47.65,52.0066702 47.4600019,52.6499971 47.08,53.23 C46.6999981,53.8100029 46.1166706,54.2699983 45.33,54.61 C44.5433294,54.9500017 43.5766724,55.12 42.43,55.12 Z M54.25,44.4 C55.6233402,44.4 56.676663,44.7433299 57.41,45.43 C58.143337,46.1166701 58.51,47.1333266 58.51,48.48 L58.51,55 L57.15,55 L57.15,53.36 C56.8299984,53.9066694 56.3600031,54.3333318 55.74,54.64 C55.1199969,54.9466682 54.3833376,55.1 53.53,55.1 C52.3566608,55.1 51.4233368,54.8200028 50.73,54.26 C50.0366632,53.6999972 49.69,52.9600046 49.69,52.04 C49.69,51.1466622 50.0133301,50.4266694 50.66,49.88 C51.3066699,49.3333306 52.3366596,49.06 53.75,49.06 L57.09,49.06 L57.09,48.42 C57.09,47.5133288 56.8366692,46.8233357 56.33,46.35 C55.8233308,45.8766643 55.0833382,45.64 54.11,45.64 C53.44333,45.64 52.8033364,45.7499989 52.19,45.97 C51.5766636,46.1900011 51.0500022,46.4933314 50.61,46.88 L49.97,45.82 C50.503336,45.3666644 51.1433296,45.0166679 51.89,44.77 C52.6366704,44.5233321 53.4233292,44.4 54.25,44.4 Z M53.75,53.98 C54.550004,53.98 55.2366638,53.7966685 55.81,53.43 C56.3833362,53.0633315 56.8099986,52.5333368 57.09,51.84 L57.09,50.12 L53.79,50.12 C51.989991,50.12 51.09,50.7466604 51.09,52 C51.09,52.6133364 51.323331,53.0966649 51.79,53.45 C52.256669,53.8033351 52.9099958,53.98 53.75,53.98 Z M67.73,44.4 C69.0500066,44.4 70.0999961,44.7833295 70.88,45.55 C71.6600039,46.3166705 72.05,47.433326 72.05,48.9 L72.05,55 L70.63,55 L70.63,49.04 C70.63,47.9466612 70.3566694,47.1133362 69.81,46.54 C69.2633306,45.9666638 68.4833384,45.68 67.47,45.68 C66.336661,45.68 65.4400033,46.0166633 64.78,46.69 C64.1199967,47.3633367 63.79,48.2933274 63.79,49.48 L63.79,55 L62.37,55 L62.37,44.48 L63.73,44.48 L63.73,46.42 C64.1166686,45.7799968 64.6533299,45.2833351 65.34,44.93 C66.0266701,44.5766649 66.8233288,44.4 67.73,44.4 Z M78.73,55.1 C77.8766624,55.1 77.0600039,54.9766679 76.28,54.73 C75.4999961,54.4833321 74.8900022,54.1733352 74.45,53.8 L75.09,52.68 C75.5300022,53.0266684 76.08333,53.3099989 76.75,53.53 C77.41667,53.7500011 78.1099964,53.86 78.83,53.86 C79.7900048,53.86 80.4999977,53.7100015 80.96,53.41 C81.4200023,53.1099985 81.65,52.6866694 81.65,52.14 C81.65,51.7533314 81.5233346,51.4500011 81.27,51.23 C81.0166654,51.0099989 80.6966686,50.8433339 80.31,50.73 C79.9233314,50.6166661 79.4100032,50.5066672 78.77,50.4 C77.9166624,50.2399992 77.2300026,50.0766675 76.71,49.91 C76.1899974,49.7433325 75.7466685,49.460002 75.38,49.06 C75.0133315,48.659998 74.83,48.1066702 74.83,47.4 C74.83,46.5199956 75.196663,45.8000028 75.93,45.24 C76.663337,44.6799972 77.6833268,44.4 78.99,44.4 C79.6700034,44.4 80.3499966,44.4899991 81.03,44.67 C81.7100034,44.8500009 82.2699978,45.0866652 82.71,45.38 L82.09,46.52 C81.223329,45.919997 80.190006,45.62 78.99,45.62 C78.0833288,45.62 77.4000023,45.7799984 76.94,46.1 C76.4799977,46.4200016 76.25,46.8399974 76.25,47.36 C76.25,47.760002 76.3799987,48.0799988 76.64,48.32 C76.9000013,48.5600012 77.2233314,48.7366661 77.61,48.85 C77.9966686,48.9633339 78.5299966,49.0799994 79.21,49.2 C80.0500042,49.3600008 80.7233308,49.5199992 81.23,49.68 C81.7366692,49.8400008 82.1699982,50.1133314 82.53,50.5 C82.8900018,50.8866686 83.07,51.4199966 83.07,52.1 C83.07,53.0200046 82.6866705,53.7499973 81.92,54.29 C81.1533295,54.8300027 80.0900068,55.1 78.73,55.1 Z M43.94,79.12 C42.8999948,79.12 41.9033381,78.953335 40.95,78.62 C39.9966619,78.286665 39.2600026,77.8466694 38.74,77.3 L39.32,76.16 C39.8266692,76.6666692 40.4999958,77.0766651 41.34,77.39 C42.1800042,77.7033349 43.0466622,77.86 43.94,77.86 C45.1933396,77.86 46.1333302,77.6300023 46.76,77.17 C47.3866698,76.7099977 47.7,76.113337 47.7,75.38 C47.7,74.8199972 47.5300017,74.373335 47.19,74.04 C46.8499983,73.706665 46.4333358,73.4500009 45.94,73.27 C45.4466642,73.0899991 44.7600044,72.8933344 43.88,72.68 C42.8266614,72.413332 41.9866698,72.1566679 41.36,71.91 C40.7333302,71.6633321 40.1966689,71.2866692 39.75,70.78 C39.3033311,70.2733308 39.08,69.586671 39.08,68.72 C39.08,68.0133298 39.2666648,67.3700029 39.64,66.79 C40.0133352,66.2099971 40.5866628,65.7466684 41.36,65.4 C42.1333372,65.0533316 43.0933276,64.88 44.24,64.88 C45.040004,64.88 45.8233295,64.9899989 46.59,65.21 C47.3566705,65.4300011 48.0199972,65.7333314 48.58,66.12 L48.08,67.3 C47.4933304,66.9133314 46.86667,66.6233343 46.2,66.43 C45.53333,66.2366657 44.8800032,66.14 44.24,66.14 C43.0133272,66.14 42.0900031,66.3766643 41.47,66.85 C40.8499969,67.3233357 40.54,67.9333296 40.54,68.68 C40.54,69.2400028 40.7099983,69.6899983 41.05,70.03 C41.3900017,70.3700017 41.8166641,70.6299991 42.33,70.81 C42.8433359,70.9900009 43.533329,71.1866656 44.4,71.4 C45.4266718,71.6533346 46.2566635,71.9033321 46.89,72.15 C47.5233365,72.3966679 48.0599978,72.7699975 48.5,73.27 C48.9400022,73.7700025 49.16,74.4466624 49.16,75.3 C49.16,76.0066702 48.9700019,76.6499971 48.59,77.23 C48.2099981,77.8100029 47.6266706,78.2699983 46.84,78.61 C46.0533294,78.9500017 45.0866724,79.12 43.94,79.12 Z M61.24,74.18 L52.44,74.18 C52.5200004,75.2733388 52.9399962,76.1566633 53.7,76.83 C54.4600038,77.5033367 55.4199942,77.84 56.58,77.84 C57.2333366,77.84 57.8333306,77.7233345 58.38,77.49 C58.9266694,77.2566655 59.399998,76.9133356 59.8,76.46 L60.6,77.38 C60.133331,77.9400028 59.5500035,78.3666652 58.85,78.66 C58.1499965,78.9533348 57.3800042,79.1 56.54,79.1 C55.4599946,79.1 54.5033375,78.8700023 53.67,78.41 C52.8366625,77.9499977 52.186669,77.3133374 51.72,76.5 C51.253331,75.6866626 51.02,74.7666718 51.02,73.74 C51.02,72.7133282 51.2433311,71.7933374 51.69,70.98 C52.1366689,70.1666626 52.7499961,69.5333356 53.53,69.08 C54.3100039,68.6266644 55.1866618,68.4 56.16,68.4 C57.1333382,68.4 58.0066628,68.6266644 58.78,69.08 C59.5533372,69.5333356 60.1599978,70.1633293 60.6,70.97 C61.0400022,71.7766707 61.26,72.6999948 61.26,73.74 L61.24,74.18 Z M56.16,69.62 C55.1466616,69.62 54.2966701,69.9433301 53.61,70.59 C52.9233299,71.2366699 52.5333338,72.0799948 52.44,73.12 L59.9,73.12 C59.8066662,72.0799948 59.4166701,71.2366699 58.73,70.59 C58.0433299,69.9433301 57.1866718,69.62 56.16,69.62 Z M65.52,70.54 C65.853335,69.8333298 66.3499967,69.3000018 67.01,68.94 C67.6700033,68.5799982 68.4866618,68.4 69.46,68.4 L69.46,69.78 L69.12,69.76 C68.0133278,69.76 67.1466698,70.0999966 66.52,70.78 C65.8933302,71.4600034 65.58,72.4133272 65.58,73.64 L65.58,79 L64.16,79 L64.16,68.48 L65.52,68.48 L65.52,70.54 Z M72.02,68.48 L73.44,68.48 L73.44,79 L72.02,79 L72.02,68.48 Z M72.74,66.18 C72.4466652,66.18 72.200001,66.080001 72,65.88 C71.799999,65.679999 71.7,65.4400014 71.7,65.16 C71.7,64.893332 71.799999,64.660001 72,64.46 C72.200001,64.259999 72.4466652,64.16 72.74,64.16 C73.0333348,64.16 73.279999,64.2566657 73.48,64.45 C73.680001,64.6433343 73.78,64.873332 73.78,65.14 C73.78,65.4333348 73.680001,65.679999 73.48,65.88 C73.279999,66.080001 73.0333348,66.18 72.74,66.18 Z M80.88,65.26 C80.2666636,65.26 79.8033349,65.426665 79.49,65.76 C79.1766651,66.093335 79.02,66.5866634 79.02,67.24 L79.02,68.48 L82.26,68.48 L82.26,69.68 L79.06,69.68 L79.06,79 L77.64,79 L77.64,69.68 L75.76,69.68 L75.76,68.48 L77.64,68.48 L77.64,67.18 C77.64,66.2199952 77.9166639,65.4600028 78.47,64.9 C79.0233361,64.3399972 79.8066616,64.06 80.82,64.06 C81.220002,64.06 81.6066648,64.1166661 81.98,64.23 C82.3533352,64.3433339 82.6666654,64.5066656 82.92,64.72 L82.44,65.78 C82.0266646,65.4333316 81.5066698,65.26 80.88,65.26 Z" id="Sans-Serif"></path>
            </g>
        </g>
    </g>
</svg>