<?xml version="1.0" encoding="UTF-8"?>
<svg width="59px" height="33px" viewBox="0 0 59 33" version="1.1" xmlns="http://www.w3.org/2000/svg" xmlns:xlink="http://www.w3.org/1999/xlink">
    <!-- Generator: Sketch 52.3 (67297) - http://www.bohemiancoding.com/sketch -->
    <title>Script</title>
    <desc>Created with Sketch.</desc>
    <g id="Page-1" stroke="none" stroke-width="1" fill="none" fill-rule="evenodd">
        <g id="Desktop-HD" transform="translate(-862.000000, -1047.000000)" fill="#141414">
            <g id="Group-5" transform="translate(832.000000, 1004.000000)">
                <path d="M30.512207,67.5302734 L31.5058594,65.7236328 C33.5413513,66.8437556 35.516592,67.4038086 37.4316406,67.4038086 C38.7083397,67.4038086 39.8736113,67.1719587 40.9274902,66.708252 C41.9813692,66.2445452 42.8124156,65.6122273 43.4206543,64.8112793 C44.028893,64.0103313 44.3330078,63.1401414 44.3330078,62.2006836 C44.3330078,61.2732701 44.0559924,60.4482458 43.5019531,59.7255859 C42.9479139,59.0029261 41.9482494,58.1658576 40.5029297,57.2143555 C39.093743,56.2748976 38.2355972,55.6967784 37.9284668,55.4799805 C37.6213364,55.2631825 37.2208684,54.9560567 36.7270508,54.5585938 C35.8478146,53.7877566 35.4082031,52.8784232 35.4082031,51.8305664 C35.4082031,49.9396064 36.6367065,48.1209397 39.09375,46.3745117 C39.7802769,45.8806941 40.5661577,45.4350606 41.451416,45.0375977 C42.3366743,44.6401347 43.2068642,44.339031 44.0620117,44.1342773 C44.9171592,43.9295237 45.7180952,43.8271484 46.4648438,43.8271484 C47.5608779,43.8271484 48.4220346,44.031899 49.0483398,44.4414062 C49.6746451,44.8509135 49.987793,45.4230106 49.987793,46.1577148 C49.987793,47.0610397 49.6084022,48.0275827 48.8496094,49.057373 C48.0908165,50.0871634 47.0550196,51.0356402 45.7421875,51.902832 L44.296875,51.0898438 C45.1881555,50.4876272 45.9409149,49.8854197 46.5551758,49.2832031 C47.1694367,48.6809866 47.6451806,48.0938342 47.9824219,47.5217285 C48.3196631,46.9496228 48.4882812,46.4287133 48.4882812,45.9589844 C48.4882812,45.6337874 48.3979501,45.356772 48.2172852,45.1279297 C48.0366202,44.8990874 47.777671,44.7244472 47.4404297,44.6040039 C47.1031884,44.4835606 46.6816432,44.4233398 46.1757812,44.4233398 C45.2363234,44.4233398 44.2276258,44.6070131 43.1496582,44.9743652 C42.0716906,45.3417173 41.0569709,45.8264944 40.1054688,46.4287109 C37.9856665,47.7656317 36.9257812,49.2530843 36.9257812,50.8911133 C36.9257812,51.3487979 37.0522448,51.7793762 37.3051758,52.1828613 C37.5581067,52.5863464 38.0007293,53.0410131 38.6330566,53.546875 C39.265384,54.0527369 40.1897726,54.703121 41.40625,55.4980469 C42.3095748,56.0882191 42.9930804,56.5699851 43.4567871,56.9433594 C43.9204939,57.3167336 44.3028956,57.7081685 44.6040039,58.1176758 C45.2784864,58.9728233 45.6157227,59.9303332 45.6157227,60.9902344 C45.6157227,61.8092489 45.401939,62.6402953 44.9743652,63.4833984 C44.5467915,64.3265016 43.9415729,65.1153935 43.1586914,65.8500977 C41.3279531,67.572437 38.7866374,68.4335938 35.534668,68.4335938 C33.4148657,68.4335938 31.7407288,68.13249 30.512207,67.5302734 Z M55.6425781,65.2900391 C54.9078739,66.3258515 54.194258,67.081622 53.501709,67.557373 C52.8091599,68.0331241 52.0413454,68.2709961 51.1982422,68.2709961 C50.2708287,68.2709961 49.5150583,67.945804 48.9309082,67.2954102 C48.3467581,66.6450163 48.0546875,65.8019258 48.0546875,64.7661133 C48.0546875,63.6821235 48.337725,62.5800837 48.9038086,61.4599609 C49.4698922,60.3398381 50.1955522,59.4124386 51.0808105,58.6777344 C51.9660689,57.9430302 52.8181925,57.5756836 53.637207,57.5756836 C54.1912463,57.5756836 54.6368798,57.7292465 54.9741211,58.036377 C55.3113624,58.3435074 55.4799805,58.7560195 55.4799805,59.2739258 C55.4799805,59.7436547 55.3023293,60.1922993 54.9470215,60.619873 C54.5917137,61.0474468 54.2093119,61.2612305 53.7998047,61.2612305 C53.6191397,61.2612305 53.4565437,61.1889656 53.3120117,61.0444336 C54.0948932,60.695148 54.4863281,60.0447639 54.4863281,59.0932617 C54.4863281,58.7560204 54.399008,58.4940602 54.2243652,58.307373 C54.0497224,58.1206859 53.8178725,58.0273438 53.5288086,58.0273438 C53.0831683,58.0273438 52.6345237,58.208006 52.1828613,58.5693359 C51.7311989,58.9306659 51.3066426,59.4335091 50.9091797,60.0778809 C50.5117168,60.7222526 50.2015799,61.4087691 49.9787598,62.1374512 C49.7559396,62.8661332 49.6445312,63.6038374 49.6445312,64.3505859 C49.6445312,65.2418664 49.8553039,65.9645155 50.2768555,66.5185547 C50.6984071,67.0725939 51.252438,67.3496094 51.9389648,67.3496094 C52.5291371,67.3496094 53.1012342,67.162925 53.6552734,66.7895508 C54.2093127,66.4161765 54.7874319,65.8440794 55.3896484,65.0732422 L55.6425781,65.2900391 Z M56.8891602,62.8691406 C57.9249726,61.6165302 58.6175113,60.4482476 58.9667969,59.3642578 C57.9912061,58.8222629 57.503418,58.0454152 57.503418,57.0336914 C57.503418,56.5519182 57.6178374,56.1604833 57.8466797,55.859375 C58.075522,55.5582667 58.3645816,55.4077148 58.7138672,55.4077148 C59.0751971,55.4077148 59.3702788,55.5733219 59.5991211,55.904541 C59.8279634,56.2357601 59.9423828,56.6663385 59.9423828,57.1962891 C59.9423828,57.5696633 59.87614,57.9851865 59.7436523,58.4428711 C60.0688493,58.5271814 60.363931,58.5693359 60.6289062,58.5693359 C61.3756548,58.5693359 61.9899064,58.3525412 62.4716797,57.9189453 L63.3388672,57.9189453 L63.2124023,58.171875 C62.3452105,59.7617267 61.6315946,61.3244552 61.0715332,62.8601074 C60.5114718,64.3957596 60.2314453,65.542965 60.2314453,66.3017578 C60.2314453,66.5787774 60.3037102,66.8106273 60.4482422,66.9973145 C60.5927742,67.1840016 60.7674143,67.2773438 60.972168,67.2773438 C61.4659855,67.2773438 62.2608995,66.7534232 63.3569336,65.7055664 L63.6459961,66.0307617 C63.3087548,66.404136 62.7848343,66.8678358 62.0742188,67.421875 C61.4358692,67.9277369 60.8396838,68.1806641 60.2856445,68.1806641 C59.8159156,68.1806641 59.445558,68.0240901 59.1745605,67.7109375 C58.9035631,67.3977849 58.7680664,66.9702176 58.7680664,66.4282227 C58.7680664,65.5248978 59.1173468,64.3807035 59.815918,62.9956055 C60.0688489,62.4776992 60.394041,61.8875359 60.7915039,61.2250977 C61.1889668,60.5626594 61.6887991,59.7737676 62.2910156,58.8583984 L62.4716797,58.6054688 C62.0742168,58.9667987 61.691815,59.2227369 61.3244629,59.373291 C60.9571108,59.5238452 60.5385766,59.5991211 60.0688477,59.5991211 C59.8520497,59.5991211 59.6232108,59.5690107 59.3823242,59.5087891 C58.9969056,60.6891335 58.2742566,61.9055927 57.2143555,63.1582031 L56.8891602,62.8691406 Z M59.3642578,58.2802734 C59.4124351,57.9791652 59.4365234,57.726238 59.4365234,57.5214844 C59.4365234,57.0999328 59.3672696,56.7687187 59.2287598,56.527832 C59.09025,56.2869454 58.9125987,56.1665039 58.6958008,56.1665039 C58.5753575,56.1665039 58.4699712,56.2237136 58.3796387,56.3381348 C58.2893062,56.4525559 58.2441406,56.5940747 58.2441406,56.7626953 C58.2441406,57.3287789 58.6175093,57.8346332 59.3642578,58.2802734 Z M69.0297852,50.3491211 C69.3429378,50.3491211 69.5958649,50.4454743 69.7885742,50.6381836 C69.9812835,50.8308929 70.0776367,51.08382 70.0776367,51.3969727 C70.0776367,51.6980809 69.9752614,51.9510081 69.7705078,52.1557617 C69.5657542,52.3605153 69.3188491,52.4628906 69.0297852,52.4628906 C68.7527655,52.4628906 68.5058605,52.3544933 68.2890625,52.1376953 C68.0722645,51.9208974 67.9638672,51.6739923 67.9638672,51.3969727 C67.9638672,51.1079087 68.0662425,50.8610036 68.2709961,50.65625 C68.4757497,50.4514964 68.7286769,50.3491211 69.0297852,50.3491211 Z M68.5058594,57.4311523 L66.9160156,63.375 C66.6510403,64.3505908 66.5185547,65.1334606 66.5185547,65.7236328 C66.5185547,66.1090514 66.5847975,66.4221993 66.7172852,66.6630859 C66.8497728,66.9039726 67.024413,67.0244141 67.2412109,67.0244141 C67.6145852,67.0244141 68.2107706,66.5787805 69.0297852,65.6875 L69.3188477,65.9404297 L69.1381836,66.1391602 C68.4516567,66.9461303 67.9458024,67.4911281 67.6206055,67.7741699 C67.2954085,68.0572117 66.9943048,68.1987305 66.7172852,68.1987305 C66.3439109,68.1987305 66.0277519,68.0090351 65.7687988,67.6296387 C65.5098457,67.2502422 65.3803711,66.7775093 65.3803711,66.2114258 C65.3803711,65.8500958 65.452636,65.2779987 65.597168,64.4951172 L66.7353516,58.171875 L68.5058594,57.4311523 Z M68.9755859,75.1723633 L72.3901367,58.171875 L74.1245117,57.4311523 L72.9321289,62.6162109 C73.8234094,60.8216056 74.6634889,59.5298705 75.4523926,58.7409668 C76.2412963,57.9520631 77.1054641,57.5576172 78.0449219,57.5576172 C78.7675817,57.5576172 79.3396789,57.8225885 79.7612305,58.3525391 C80.1827821,58.8824896 80.3935547,59.6111607 80.3935547,60.5385742 C80.3935547,61.478032 80.2038593,62.4415641 79.8244629,63.4291992 C79.4450665,64.4168344 78.9121128,65.3141236 78.2255859,66.1210938 C76.9850198,67.6145908 75.6180088,68.3613281 74.1245117,68.3613281 C73.1850539,68.3613281 72.4142283,68.114423 71.8120117,67.6206055 L69.9511719,75.1723633 L68.9755859,75.1723633 Z M72.0830078,66.4282227 C72.5888697,67.4158578 73.2994746,67.909668 74.2148438,67.909668 C75.5397202,67.909668 76.6959586,66.8317165 77.6835938,64.6757812 C78.4905639,62.9413976 78.894043,61.4840554 78.894043,60.3037109 C78.894043,59.6653614 78.7736015,59.1715512 78.5327148,58.8222656 C78.2918282,58.47298 77.9485699,58.2983398 77.5029297,58.2983398 C76.7802698,58.2983398 76.0214883,58.7740838 75.2265625,59.7255859 C74.4677696,60.6650438 73.8234076,61.7128848 73.293457,62.8691406 C73.0887034,63.3268252 72.899008,63.8146133 72.7243652,64.3325195 C72.5497224,64.8504258 72.3841154,65.3803684 72.2275391,65.9223633 L72.0830078,66.4282227 Z M85.34375,58.3525391 L83.9707031,64.3686523 C83.8261712,65.0310906 83.7539062,65.5008124 83.7539062,65.777832 C83.7539062,66.2114279 83.8562815,66.5607083 84.0610352,66.8256836 C84.2657888,67.0906589 84.5367822,67.2231445 84.8740234,67.2231445 C85.1992204,67.2231445 85.4973131,67.1298024 85.7683105,66.9431152 C86.039308,66.7564281 86.4518201,66.3680043 87.0058594,65.777832 L87.2226562,65.5610352 L87.4936523,65.8320312 C86.7830368,66.6992231 86.1898624,67.3104637 85.7141113,67.6657715 C85.2383603,68.0210793 84.7716494,68.1987305 84.3139648,68.1987305 C83.735837,68.1987305 83.2751482,68.0090351 82.9318848,67.6296387 C82.5886213,67.2502422 82.4169922,66.753421 82.4169922,66.1391602 C82.4169922,65.6814756 82.5073233,65.0190473 82.6879883,64.1518555 L83.8623047,58.3525391 L82.1279297,58.3525391 L82.2543945,57.7382812 L83.9887695,57.7382812 L85.0004883,52.8603516 L86.7348633,52.1738281 L85.4702148,57.7382812 L88.3969727,57.7382812 L88.2705078,58.3525391 L85.34375,58.3525391 Z" id="Script"></path>
            </g>
        </g>
    </g>
</svg>